<?xml version="1.0" encoding="UTF-8"?>
<svg id="Capa_2" data-name="Capa 2" xmlns="http://www.w3.org/2000/svg" xmlns:xlink="http://www.w3.org/1999/xlink" viewBox="0 0 360.95 449.92">
  <defs>
    <style>
      .cls-1 {
        fill: #ffcab0;
      }

      .cls-2 {
        letter-spacing: 0em;
      }

      .cls-3 {
        stroke: #bab6b5;
        stroke-width: 2px;
      }

      .cls-3, .cls-4 {
        fill: none;
      }

      .cls-5 {
        letter-spacing: 0em;
      }

      .cls-6 {
        fill: #f75600;
      }

      .cls-7 {
        fill: #1d1d1b;
      }

      .cls-7, .cls-8 {
        font-family: ArialMT, Arial;
        font-size: 18px;
      }

      .cls-8 {
        fill: #9d9d9c;
      }

      .cls-9 {
        letter-spacing: 0em;
      }

      .cls-10 {
        fill: #bab6b5;
      }

      .cls-11 {
        letter-spacing: -.01em;
      }

      .cls-12 {
        clip-path: url(#clippath);
      }
    </style>
    <clipPath id="clippath">
      <rect class="cls-4" width="360.95" height="449.92"/>
    </clipPath>
  </defs>
  <g id="Capa_2-2" data-name="Capa 2">
    <g>
      <g class="cls-12">
        <rect class="cls-1" x="119.84" y="74.34" width="175.21" height="336.61" rx="12" ry="12"/>
      </g>
      <rect class="cls-6" x="119.84" y="351.72" width="175.21" height="60.05"/>
      <line class="cls-3" x1="34.95" y1="74.34" x2="53.95" y2="74.34"/>
      <line class="cls-3" x1="34.95" y1="185.55" x2="53.95" y2="185.55"/>
      <line class="cls-3" x1="34.95" y1="296.75" x2="53.95" y2="296.75"/>
      <text class="cls-7" transform="translate(152.2 189.41)"><tspan x="0" y="0">Diseñado</tspan><tspan class="cls-5" x="76.05" y="0">r</tspan><tspan x="81.97" y="0">a </tspan></text>
      <text class="cls-7" transform="translate(152.2 210.41)"><tspan x="0" y="0">con mención </tspan></text>
      <text class="cls-7" transform="translate(152.2 231.42)"><tspan x="0" y="0">Industrial </tspan></text>
      <text class="cls-7" transform="translate(152.2 252.42)"><tspan x="0" y="0">y Se</tspan><tspan class="cls-9" x="36.02" y="0">r</tspan><tspan x="42.17" y="0">vicios</tspan></text>
      <text class="cls-8" transform="translate(133.43 442.72)"><tspan x="0" y="0">Título pro</tspan><tspan class="cls-11" x="76.03" y="0">f</tspan><tspan x="80.85" y="0">esional</tspan></text>
      <text class="cls-8" transform="translate(8.99 23.77)"><tspan x="0" y="0">Egresados</tspan></text>
      <text class="cls-7" transform="translate(159.35 389.64)"><tspan x="0" y="0">Diseñado</tspan><tspan class="cls-2" x="76.05" y="0">r</tspan><tspan x="81.96" y="0">a</tspan></text>
      <text class="cls-7" transform="translate(19.45 81.78)"><tspan x="0" y="0">6</tspan></text>
      <text class="cls-7" transform="translate(19.45 191.78)"><tspan x="0" y="0">4</tspan></text>
      <text class="cls-7" transform="translate(19.45 301.78)"><tspan x="0" y="0">2</tspan></text>
      <text class="cls-7" transform="translate(19.45 411.78)"><tspan x="0" y="0">0</tspan></text>
      <line class="cls-3" x1="53.95" y1="39.75" x2="53.95" y2="411.77"/>
      <rect class="cls-10" x="49.94" y="35.75" width="8" height="8"/>
      <line class="cls-3" x1="356.95" y1="410.96" x2="53.95" y2="410.96"/>
      <rect class="cls-10" x="352.95" y="406.96" width="8" height="8"/>
    </g>
  </g>
</svg>